HIERARCHY
ROOT Hips
{
	OFFSET 0.000000 71.427986 0.000000
	CHANNELS 6 Xposition Yposition Zposition Xrotation Yrotation Zrotation
	JOINT Pelvis
	{
		OFFSET 0.000000 0.000000 0.000000
		CHANNELS 3 Xrotation Yrotation Zrotation
		JOINT LeftUpLeg
		{
			OFFSET 6.797100 -2.508499 -1.318700
			CHANNELS 3 Xrotation Yrotation Zrotation
			JOINT LeftLeg
			{
				OFFSET 0.069008 -29.241863 0.690200
				CHANNELS 3 Xrotation Yrotation Zrotation
				JOINT LeftFoot
				{
					OFFSET -0.069008 -29.568123 -0.266800
					CHANNELS 3 Xrotation Yrotation Zrotation
					JOINT LeftToeBase
					{
						OFFSET 3.145500 -8.631000 16.059900
						CHANNELS 3 Xrotation Yrotation Zrotation
						End Site
						{
							OFFSET 0.000000 18.501587 0.000000
						}
					}
				}
			}
			JOINT Left_ShortSleeve
			{
				OFFSET 0.265923 -10.480953 1.153800
				CHANNELS 3 Xrotation Yrotation Zrotation
				End Site
				{
					OFFSET 1.725763 19.823879 0.000000
				}
			}
		}
		JOINT RightUpLeg
		{
			OFFSET -6.797100 -2.508499 -1.318700
			CHANNELS 3 Xrotation Yrotation Zrotation
			JOINT RightLeg
			{
				OFFSET -0.082453 -29.241932 0.688000
				CHANNELS 3 Xrotation Yrotation Zrotation
				JOINT RightFoot
				{
					OFFSET 0.082453 -29.568058 -0.264600
					CHANNELS 3 Xrotation Yrotation Zrotation
					JOINT RightToeBase
					{
						OFFSET -3.115300 -8.682800 16.113400
						CHANNELS 3 Xrotation Yrotation Zrotation
						End Site
						{
							OFFSET 0.000000 18.567114 0.000000
						}
					}
				}
			}
			JOINT Right_ShortSleeve
			{
				OFFSET -0.265923 -10.480953 1.153800
				CHANNELS 3 Xrotation Yrotation Zrotation
				End Site
				{
					OFFSET -1.725766 19.823910 0.000000
				}
			}
		}
	}
	JOINT Spine
	{
		OFFSET 0.000000 13.368103 0.470500
		CHANNELS 3 Xrotation Yrotation Zrotation
		JOINT Spine1
		{
			OFFSET 0.147000 13.837402 0.538800
			CHANNELS 3 Xrotation Yrotation Zrotation
			JOINT Spine2
			{
				OFFSET 0.168000 16.242897 -1.435500
				CHANNELS 3 Xrotation Yrotation Zrotation
				JOINT Neck
				{
					OFFSET 0.217200 18.631500 -1.679100
					CHANNELS 3 Xrotation Yrotation Zrotation
					JOINT Head
					{
						OFFSET 0.000000 6.599396 1.385900
						CHANNELS 3 Xrotation Yrotation Zrotation
						JOINT Hat
						{
							OFFSET -0.532200 27.220596 -10.096100
							CHANNELS 3 Xrotation Yrotation Zrotation
							End Site
							{
								OFFSET 0.000000 22.029861 0.000000
							}
						}
						JOINT HairD
						{
							OFFSET -10.777400 17.437393 -1.325900
							CHANNELS 3 Xrotation Yrotation Zrotation
							JOINT HairD1
							{
								OFFSET -3.290299 -11.051193 1.062200
								CHANNELS 3 Xrotation Yrotation Zrotation
								End Site
								{
									OFFSET 0.000000 11.579437 0.000000
								}
							}
						}
						JOINT HairB
						{
							OFFSET -10.777400 17.437393 1.467900
							CHANNELS 3 Xrotation Yrotation Zrotation
							JOINT HairB1
							{
								OFFSET -1.561200 -12.956299 3.590200
								CHANNELS 3 Xrotation Yrotation Zrotation
								End Site
								{
									OFFSET 0.000000 13.534866 0.000000
								}
							}
						}
						JOINT HairA
						{
							OFFSET 9.713100 17.437393 1.467900
							CHANNELS 3 Xrotation Yrotation Zrotation
							JOINT HairA1
							{
								OFFSET 1.561200 -12.956299 3.590200
								CHANNELS 3 Xrotation Yrotation Zrotation
								End Site
								{
									OFFSET 0.000000 13.534866 0.000000
								}
							}
						}
						JOINT HairC
						{
							OFFSET 9.713100 17.437393 -1.325900
							CHANNELS 3 Xrotation Yrotation Zrotation
							JOINT HairC1
							{
								OFFSET 3.290300 -11.051193 1.062200
								CHANNELS 3 Xrotation Yrotation Zrotation
								End Site
								{
									OFFSET 0.000000 11.579437 0.000000
								}
							}
						}
					}
				}
				JOINT LeftShoulder
				{
					OFFSET 5.101800 15.108002 -2.763700
					CHANNELS 3 Xrotation Yrotation Zrotation
					JOINT LeftArm
					{
						OFFSET 9.825497 2.506317 -1.597400
						CHANNELS 3 Xrotation Yrotation Zrotation
						JOINT LeftForeArm
						{
							OFFSET 21.966244 0.000000 0.000000
							CHANNELS 3 Xrotation Yrotation Zrotation
							JOINT LeftHand
							{
								OFFSET 33.879036 0.000000 0.000000
								CHANNELS 3 Xrotation Yrotation Zrotation
								JOINT LeftHandThumb1
								{
									OFFSET 6.715286 -2.359680 3.363841
									CHANNELS 3 Xrotation Yrotation Zrotation
									JOINT LeftHandThumb2
									{
										OFFSET 2.507072 -1.447464 1.447461
										CHANNELS 3 Xrotation Yrotation Zrotation
										JOINT LeftHandThumb3
										{
											OFFSET 2.898338 -1.673355 1.673357
											CHANNELS 3 Xrotation Yrotation Zrotation
											End Site
											{
												OFFSET -0.295959 3.727692 -0.131651
											}
										}
									}
								}
								JOINT LeftHandIndex1
								{
									OFFSET 14.190811 -0.254547 3.840278
									CHANNELS 3 Xrotation Yrotation Zrotation
									JOINT LeftHandIndex2
									{
										OFFSET 3.551727 0.000000 -0.000000
										CHANNELS 3 Xrotation Yrotation Zrotation
										JOINT LeftHandIndex3
										{
											OFFSET 2.894196 0.000000 0.000000
											CHANNELS 3 Xrotation Yrotation Zrotation
											End Site
											{
												OFFSET -1.000603 2.690872 0.366626
											}
										}
									}
								}
								JOINT LeftHandMiddle1
								{
									OFFSET 13.776489 0.000000 0.000000
									CHANNELS 3 Xrotation Yrotation Zrotation
									JOINT LeftHandMiddle2
									{
										OFFSET 3.438232 0.000000 0.000000
										CHANNELS 3 Xrotation Yrotation Zrotation
										JOINT LeftHandMiddle3
										{
											OFFSET 3.691551 0.000000 0.000000
											CHANNELS 3 Xrotation Yrotation Zrotation
											End Site
											{
												OFFSET -1.082298 3.499527 0.457670
											}
										}
									}
								}
								JOINT LeftHandRing1
								{
									OFFSET 13.966164 -0.268127 -3.067488
									CHANNELS 3 Xrotation Yrotation Zrotation
									JOINT LeftHandRing2
									{
										OFFSET 3.162567 0.000000 0.000000
										CHANNELS 3 Xrotation Yrotation Zrotation
										JOINT LeftHandRing3
										{
											OFFSET 3.324348 0.000000 0.000000
											CHANNELS 3 Xrotation Yrotation Zrotation
											End Site
											{
												OFFSET -0.861900 3.184998 0.405154
											}
										}
									}
								}
								JOINT LeftHandPinky1
								{
									OFFSET 13.131393 -0.168503 -5.746925
									CHANNELS 3 Xrotation Yrotation Zrotation
									JOINT LeftHandPinky2
									{
										OFFSET 2.849182 0.000000 0.000000
										CHANNELS 3 Xrotation Yrotation Zrotation
										JOINT LeftHandPinky3
										{
											OFFSET 2.805038 0.000000 0.000000
											CHANNELS 3 Xrotation Yrotation Zrotation
											End Site
											{
												OFFSET -0.882500 2.642609 0.325652
											}
										}
									}
								}
							}
							JOINT Left_Sleeve
							{
								OFFSET 6.592125 -0.646545 0.805568
								CHANNELS 3 Xrotation Yrotation Zrotation
								End Site
								{
									OFFSET -0.000179 20.275787 -0.000000
								}
							}
						}
					}
				}
				JOINT RightShoulder
				{
					OFFSET -5.731700 15.108002 -2.763700
					CHANNELS 3 Xrotation Yrotation Zrotation
					JOINT RightArm
					{
						OFFSET -9.825497 2.506317 -1.597400
						CHANNELS 3 Xrotation Yrotation Zrotation
						JOINT RightForeArm
						{
							OFFSET -21.966242 0.000000 0.000000
							CHANNELS 3 Xrotation Yrotation Zrotation
							JOINT RightHand
							{
								OFFSET -33.879032 0.000000 0.000000
								CHANNELS 3 Xrotation Yrotation Zrotation
								JOINT RightHandThumb1
								{
									OFFSET -6.715286 -2.359680 3.363841
									CHANNELS 3 Xrotation Yrotation Zrotation
									JOINT RightHandThumb2
									{
										OFFSET -2.507072 -1.447464 1.447461
										CHANNELS 3 Xrotation Yrotation Zrotation
										JOINT RightHandThumb3
										{
											OFFSET -2.898338 -1.673355 1.673357
											CHANNELS 3 Xrotation Yrotation Zrotation
											End Site
											{
												OFFSET 0.295959 3.727692 -0.131651
											}
										}
									}
								}
								JOINT RightHandIndex1
								{
									OFFSET -14.190811 -0.254547 3.840278
									CHANNELS 3 Xrotation Yrotation Zrotation
									JOINT RightHandIndex2
									{
										OFFSET -3.551727 0.000000 -0.000000
										CHANNELS 3 Xrotation Yrotation Zrotation
										JOINT RightHandIndex3
										{
											OFFSET -2.894196 0.000000 0.000000
											CHANNELS 3 Xrotation Yrotation Zrotation
											End Site
											{
												OFFSET 1.000603 2.690872 0.366626
											}
										}
									}
								}
								JOINT RightHandMiddle1
								{
									OFFSET -13.776489 0.000000 0.000000
									CHANNELS 3 Xrotation Yrotation Zrotation
									JOINT RightHandMiddle2
									{
										OFFSET -3.438232 0.000000 0.000000
										CHANNELS 3 Xrotation Yrotation Zrotation
										JOINT RightHandMiddle3
										{
											OFFSET -3.691551 0.000000 0.000000
											CHANNELS 3 Xrotation Yrotation Zrotation
											End Site
											{
												OFFSET 1.082298 3.499527 0.457670
											}
										}
									}
								}
								JOINT RightHandRing1
								{
									OFFSET -13.966164 -0.268127 -3.067488
									CHANNELS 3 Xrotation Yrotation Zrotation
									JOINT RightHandRing2
									{
										OFFSET -3.162567 0.000000 0.000000
										CHANNELS 3 Xrotation Yrotation Zrotation
										JOINT RightHandRing3
										{
											OFFSET -3.324348 0.000000 0.000000
											CHANNELS 3 Xrotation Yrotation Zrotation
											End Site
											{
												OFFSET 0.861900 3.184998 0.405154
											}
										}
									}
								}
								JOINT RightHandPinky1
								{
									OFFSET -13.131393 -0.168503 -5.746925
									CHANNELS 3 Xrotation Yrotation Zrotation
									JOINT RightHandPinky2
									{
										OFFSET -2.849182 0.000000 0.000000
										CHANNELS 3 Xrotation Yrotation Zrotation
										JOINT RightHandPinky3
										{
											OFFSET -2.805038 0.000000 0.000000
											CHANNELS 3 Xrotation Yrotation Zrotation
											End Site
											{
												OFFSET 0.882500 2.642609 0.325652
											}
										}
									}
								}
							}
							JOINT Right_Sleeve
							{
								OFFSET -6.592125 -0.646545 0.805568
								CHANNELS 3 Xrotation Yrotation Zrotation
								End Site
								{
									OFFSET 0.000179 20.275787 -0.000000
								}
							}
						}
					}
				}
				JOINT Bind_Right_JacketString
				{
					OFFSET -3.534800 11.969597 7.200700
					CHANNELS 3 Xrotation Yrotation Zrotation
					JOINT Bind_Right_JacketString1
					{
						OFFSET -0.319900 -6.102600 2.794100
						CHANNELS 3 Xrotation Yrotation Zrotation
						End Site
						{
							OFFSET 0.000000 6.719452 0.000000
						}
					}
				}
				JOINT Bind_Left_JacketString
				{
					OFFSET 2.904800 11.969597 7.200700
					CHANNELS 3 Xrotation Yrotation Zrotation
					JOINT Bind_Left_JacketString1
					{
						OFFSET 0.364800 -5.904503 3.186800
						CHANNELS 3 Xrotation Yrotation Zrotation
						End Site
						{
							OFFSET 0.000000 6.719513 0.000000
						}
					}
				}
				JOINT HairE
				{
					OFFSET 5.915200 17.612701 -11.592200
					CHANNELS 3 Xrotation Yrotation Zrotation
					JOINT HairE1
					{
						OFFSET 0.289200 -7.171898 -1.284500
						CHANNELS 3 Xrotation Yrotation Zrotation
						End Site
						{
							OFFSET 0.000000 7.291756 0.000000
						}
					}
				}
				JOINT HairF
				{
					OFFSET -0.864800 17.612701 -11.592200
					CHANNELS 3 Xrotation Yrotation Zrotation
					JOINT HairF1
					{
						OFFSET 0.000000 -14.087097 -2.127501
						CHANNELS 3 Xrotation Yrotation Zrotation
						End Site
						{
							OFFSET 0.000000 14.246841 0.000000
						}
					}
				}
				JOINT HairG
				{
					OFFSET -8.087700 17.612701 -11.592200
					CHANNELS 3 Xrotation Yrotation Zrotation
					JOINT HairG1
					{
						OFFSET -0.293600 -6.081398 -0.910100
						CHANNELS 3 Xrotation Yrotation Zrotation
						End Site
						{
							OFFSET 0.000000 6.156120 0.000000
						}
					}
				}
			}
		}
	}
	JOINT Pouch
	{
		OFFSET 0.000000 4.394501 10.847300
		CHANNELS 3 Xrotation Yrotation Zrotation
		End Site
		{
			OFFSET 0.000000 21.880577 0.000000
		}
	}
	JOINT Bag
	{
		OFFSET -13.229000 4.813004 -0.593300
		CHANNELS 3 Xrotation Yrotation Zrotation
		End Site
		{
			OFFSET 0.000000 21.880577 0.000000
		}
	}
	JOINT OccupyGuyFacialAnim_Joint
	{
		OFFSET 1.000000 -70.206398 -1.655000
		CHANNELS 3 Xrotation Yrotation Zrotation
		End Site
		{
			OFFSET 0.000000 21.880577 0.000000
		}
	}
}
MOTION
Frames: 5
Frame Time: 0.033333
-4.102027 71.831993 -2.865753 -182.358620 52.107069 180.816131 -0.000000 0.000001 -0.000000 -33.100715 8.520938 12.795798 27.142146 20.238549 -0.872016 26.791193 4.839215 -3.677166 -0.000000 0.000000 -0.000000 -0.000000 -0.000000 -0.000000 -16.069958 -12.136958 -3.248420 41.882348 -13.289421 -1.194225 -5.828715 0.476491 7.273484 0.000001 0.000000 -0.000000 -0.000000 -0.000003 -0.000001 9.392572 -2.373775 1.828234 -4.664029 -1.640181 -0.748270 -4.645816 -1.638007 -0.601954 1.689939 -37.199085 7.277749 -0.802032 -33.071151 -1.501135 -0.000000 0.000000 0.000000 -0.000000 0.000000 0.000000 -0.000000 0.000000 0.000000 -0.000000 0.000000 -0.000000 -0.000000 0.000000 -0.000000 -0.000000 0.000000 -0.000000 -0.000000 0.000000 -0.000000 -0.000000 0.000000 0.000000 -0.000000 0.000000 0.000000 1.962211 1.410093 -2.264297 3.791245 17.947068 -71.374965 12.186227 -8.244688 -0.925963 -0.607669 3.319960 3.659984 10.620031 -1.598503 20.279062 -3.098736 26.252061 -6.452345 0.000001 -0.000004 -0.000002 1.689502 2.103538 -7.462707 -1.941865 2.172253 -37.517690 -0.000003 0.000000 -0.000004 -1.996444 5.015712 -13.810704 0.119100 4.555376 -46.749670 0.000000 0.000004 -0.000002 -4.253372 10.447510 -11.381761 3.479569 3.746294 -52.869810 -0.000005 -0.000000 0.000001 -5.138663 12.069484 -21.433791 9.521709 2.561522 -53.251969 0.000001 -0.000001 -0.000003 -0.000001 -0.000001 -0.000001 1.919314 3.015572 3.685017 -7.226362 1.932548 73.622848 2.505263 16.906294 -1.379216 -0.197841 0.032568 -3.177524 15.085422 3.134256 -15.857606 -6.861097 -23.938292 7.037642 -0.000003 -0.000001 0.000001 2.320494 -3.088399 1.601999 -2.164781 -2.441158 15.775123 -0.000000 -0.000001 0.000000 -1.986345 -5.672714 6.320091 0.257184 -5.078971 23.647223 0.000004 -0.000000 0.000001 -4.978113 -10.104739 4.236818 4.020826 -4.042867 30.699972 0.000001 -0.000001 -0.000001 -6.474435 -11.324733 15.410645 10.709196 -2.551303 30.939958 0.000002 -0.000001 0.000004 0.000001 -0.000000 0.000000 -0.000000 0.000001 0.000000 -0.000000 -0.000002 -0.000000 -0.000000 0.000001 0.000000 -0.000000 0.000001 0.000000 -0.000000 0.000001 0.000000 -0.000000 -0.000002 -0.000000 -0.000000 0.000001 0.000000 -0.000000 0.000001 0.000000 -0.000000 0.000001 0.000000 -0.000000 -0.000002 -0.000000 -0.000000 0.000001 -0.000000 -0.000000 0.000001 -0.000000 -0.000000 0.000001 -0.000000 
-4.395238 71.686043 -3.880415 -183.219674 50.136884 181.137819 -0.000000 0.000001 0.000000 -33.767212 7.916684 12.945790 26.400153 21.961379 -0.260800 27.964032 4.020676 -4.782367 0.000001 0.000000 0.000000 0.000001 -0.000001 -0.000001 -16.211951 -12.608587 -3.882730 42.006766 -14.106756 -1.299471 -6.140173 0.573094 8.432290 0.000000 -0.000000 0.000001 -0.000000 -0.000000 -0.000000 9.352839 -1.648451 3.094407 -4.891211 -1.174345 -1.028918 -4.880191 -1.173206 -0.922913 -0.389487 -35.817628 5.086021 -0.230175 -32.021412 -0.939803 -0.000000 0.000002 -0.000000 -0.000000 0.000002 -0.000000 -0.000000 0.000002 -0.000000 -0.000000 0.000002 -0.000000 -0.000000 0.000001 0.000000 -0.000000 0.000002 -0.000000 -0.000000 0.000001 0.000000 -0.000000 0.000002 -0.000000 -0.000000 0.000002 -0.000000 1.961743 2.500146 -3.373326 3.780648 17.809394 -71.485060 11.680819 -7.871448 -1.080437 -0.582311 3.278730 3.967054 10.616473 -1.646697 20.449380 -3.183667 26.246653 -6.472575 -0.000000 0.000003 -0.000001 1.711377 2.158998 -7.557556 -1.945406 2.183727 -37.211564 0.000000 -0.000001 -0.000000 -1.997845 5.038772 -13.983253 0.129393 4.571795 -46.530879 0.000000 0.000003 -0.000002 -4.277822 10.433464 -11.557233 3.500828 3.751652 -52.674221 -0.000002 0.000004 -0.000004 -5.183723 12.039592 -21.599068 9.561996 2.549177 -53.000936 -0.000003 0.000001 -0.000002 -0.000002 0.000001 0.000002 1.899988 3.487642 2.870376 -7.271314 2.679793 74.254948 1.997149 16.571893 -1.031964 -0.157036 1.139694 -4.224165 15.132677 2.775765 -15.943118 -6.718616 -24.159465 7.036675 0.000001 -0.000002 0.000003 2.321730 -3.064067 1.946897 -2.165372 -2.441900 16.847290 -0.000001 -0.000001 0.000000 -1.985639 -5.672929 6.642510 0.257413 -5.079623 24.697146 0.000002 -0.000000 0.000001 -4.978093 -10.105100 4.593325 4.019557 -4.043244 31.783776 0.000001 -0.000001 -0.000001 -6.474406 -11.324811 15.706554 10.709384 -2.551649 31.963346 0.000000 -0.000001 -0.000001 -0.000000 -0.000001 0.000002 -0.000000 -0.000002 -0.000000 0.000000 -0.000002 0.000000 -0.000000 -0.000002 0.000000 -0.000000 -0.000002 0.000000 -0.000000 -0.000002 -0.000000 0.000000 -0.000002 0.000000 -0.000000 -0.000002 0.000000 -0.000000 -0.000002 0.000000 -0.000000 -0.000002 -0.000000 0.000000 -0.000002 0.000000 -0.000000 0.000001 0.000000 -0.000000 0.000001 0.000000 -0.000000 0.000001 0.000000 
-4.607759 71.516663 -5.057373 -183.641329 48.021510 181.079516 -0.000000 -0.000001 0.000000 -35.208167 7.535870 13.022338 28.679968 22.589107 -0.279804 26.890076 3.621388 -4.835539 -0.000001 -0.000000 0.000000 -0.000003 -0.000005 -0.000003 -15.762641 -12.478016 -4.184841 42.036751 -15.681389 -1.495151 -6.553742 0.484696 9.872280 -0.000001 0.000000 -0.000000 -0.000001 0.000000 -0.000001 9.169131 -0.778305 4.231073 -4.919425 -0.650811 -1.179502 -4.901228 -0.634263 -1.122896 -2.229704 -33.712509 3.021103 -0.312296 -30.332023 -0.520307 -0.000000 -0.000001 0.000000 -0.000000 -0.000001 0.000000 -0.000000 -0.000001 -0.000000 -0.000000 -0.000001 0.000000 -0.000000 -0.000003 0.000000 -0.000000 -0.000001 0.000000 -0.000000 -0.000003 0.000000 -0.000000 -0.000001 0.000000 -0.000000 -0.000001 0.000000 1.988268 3.240260 -4.605717 3.114891 17.983456 -71.820443 10.998371 -7.236697 -0.978504 -0.537274 2.810813 4.175389 10.612840 -1.695896 20.623469 -3.270412 26.241156 -6.493374 0.000001 -0.000000 -0.000002 1.733863 2.215622 -7.654496 -1.949247 2.195302 -36.856886 -0.000001 -0.000000 0.000002 -1.999136 5.062323 -14.159632 0.139658 4.588673 -46.265362 0.000002 0.000002 -0.000003 -4.302899 10.419234 -11.736571 3.522410 3.757381 -52.432350 -0.000001 -0.000000 0.000003 -5.229918 12.009328 -21.768009 9.603259 2.537123 -52.702573 -0.000000 -0.000002 0.000001 -0.000003 0.000000 -0.000000 1.884278 3.884490 2.078790 -7.669865 3.131777 74.838396 2.205835 15.188556 -0.912320 -0.111981 1.474708 -4.800130 15.181414 2.401633 -16.031986 -6.570516 -24.389023 7.036272 -0.000001 -0.000001 0.000000 2.322666 -3.038329 2.306475 -2.165564 -2.442612 17.958319 0.000004 0.000001 -0.000001 -1.984966 -5.673108 6.978285 0.257762 -5.080264 25.784622 -0.000005 0.000000 -0.000001 -4.978073 -10.105480 4.965088 4.018093 -4.043665 32.907144 0.000001 -0.000001 0.000002 -6.474357 -11.324922 16.014354 10.709573 -2.552009 33.022773 -0.000001 0.000001 0.000002 -0.000002 0.000002 -0.000002 -0.000000 -0.000003 0.000000 -0.000000 0.000001 0.000000 -0.000000 -0.000003 0.000000 -0.000000 -0.000003 0.000000 -0.000000 -0.000003 0.000000 -0.000000 0.000001 -0.000000 -0.000000 -0.000003 0.000000 -0.000000 -0.000003 0.000000 -0.000000 -0.000003 0.000000 -0.000000 0.000001 -0.000000 -0.000000 -0.000001 0.000000 -0.000000 -0.000001 0.000000 -0.000000 -0.000001 0.000000 
-4.769352 71.343773 -6.387732 -184.122038 45.760584 181.207309 -0.000000 -0.000001 0.000000 -36.940098 7.483046 12.811955 32.323679 22.307666 -0.958328 24.764775 3.401212 -4.553872 -0.000001 0.000000 0.000000 -0.000002 -0.000000 0.000000 -15.124236 -12.155317 -4.517403 41.935893 -17.696004 -1.740536 -7.003025 0.315272 11.391066 0.000002 -0.000000 -0.000000 0.000001 0.000003 -0.000000 8.608357 0.064329 5.007575 -4.788424 -0.096973 -1.254397 -4.752092 -0.061828 -1.246791 -3.808438 -31.268124 1.221627 -0.713316 -28.284025 -0.394312 -0.000000 0.000001 0.000000 -0.000000 0.000001 0.000000 -0.000000 0.000001 0.000000 -0.000000 0.000001 0.000000 0.000000 -0.000001 0.000000 -0.000000 0.000001 0.000000 0.000000 -0.000001 0.000000 -0.000000 0.000001 0.000000 -0.000000 0.000001 0.000000 2.032529 3.736799 -5.744254 2.359211 18.651360 -72.441587 8.999800 -7.159335 -0.614606 -0.476761 2.003746 3.538916 10.609354 -1.745638 20.800773 -3.358677 26.235571 -6.514642 0.000001 0.000001 -0.000003 1.757024 2.273170 -7.753299 -1.953440 2.207053 -36.456954 -0.000000 -0.000001 -0.000004 -2.000290 5.086318 -14.339245 0.149819 4.605969 -45.956310 0.000005 0.000005 0.000001 -4.328474 10.404914 -11.919211 3.544243 3.763487 -52.147429 -0.000000 0.000001 0.000005 -5.277177 11.978773 -21.940051 9.645502 2.525500 -52.359995 -0.000002 -0.000000 0.000003 0.000002 0.000001 -0.000000 1.844498 4.004907 1.691130 -7.859156 3.236471 75.043131 3.161240 14.314096 -1.079803 -0.115465 1.150257 -4.234341 15.231069 2.015694 -16.123334 -6.418352 -24.624411 7.036563 -0.000004 0.000000 0.000003 2.323232 -3.011384 2.676854 -2.165318 -2.443265 19.095464 -0.000001 0.000001 -0.000001 -1.984657 -5.673330 7.323818 0.258131 -5.080943 26.897112 0.000002 -0.000001 -0.000001 -4.978073 -10.105854 5.348279 4.016921 -4.044103 34.057191 0.000002 -0.000000 -0.000001 -6.474303 -11.325039 16.330639 10.709729 -2.552348 34.106003 0.000002 -0.000002 0.000005 0.000001 -0.000001 0.000002 -0.000000 -0.000003 -0.000000 0.000000 -0.000003 0.000000 -0.000000 -0.000003 0.000000 -0.000000 -0.000003 0.000000 -0.000000 -0.000003 -0.000000 0.000000 -0.000003 0.000000 -0.000000 -0.000003 0.000000 -0.000000 -0.000003 0.000000 -0.000000 -0.000003 -0.000000 0.000000 -0.000003 0.000000 -0.000000 -0.000001 0.000000 -0.000000 -0.000001 0.000000 -0.000000 -0.000001 0.000000 
-4.882159 71.210426 -7.841992 -184.388197 43.275276 181.482142 -0.000000 -0.000001 0.000000 -38.314496 7.674132 12.126426 35.837934 22.314901 -1.817490 22.793207 2.297101 -3.554209 -0.000001 -0.000001 0.000000 -0.000002 0.000001 -0.000001 -14.083231 -11.893863 -5.105631 41.590040 -19.883517 -1.985005 -7.468676 0.105809 12.744915 0.000000 -0.000001 0.000001 0.000000 0.000001 -0.000000 8.292469 0.685348 5.338610 -4.792810 0.393661 -1.345607 -4.735139 0.438570 -1.379067 -5.236363 -28.514093 -0.422481 -0.453398 -25.977545 -0.062469 -0.000000 -0.000000 0.000000 -0.000000 -0.000000 0.000000 -0.000000 -0.000000 0.000000 -0.000000 -0.000000 -0.000000 -0.000000 -0.000000 0.000000 -0.000000 -0.000000 -0.000000 -0.000000 -0.000000 0.000000 -0.000000 -0.000000 0.000000 -0.000000 -0.000000 0.000000 2.081581 4.421578 -6.709454 2.340110 19.292684 -73.155130 6.393482 -8.640849 -0.154341 -0.435833 1.004953 1.677087 10.605879 -1.795994 20.980821 -3.448182 26.229953 -6.536324 -0.000001 -0.000000 -0.000001 1.780684 2.331519 -7.853652 -1.957891 2.218870 -36.015311 -0.000004 0.000000 -0.000002 -2.001444 5.110689 -14.521576 0.159837 4.623703 -45.606881 -0.000002 0.000000 -0.000001 -4.354610 10.390530 -12.104601 3.566290 3.770028 -51.822469 -0.000002 0.000003 -0.000005 -5.325339 11.948035 -22.114646 9.688462 2.514579 -51.976602 0.000001 -0.000000 -0.000001 -0.000001 0.000000 -0.000001 1.782289 4.065770 1.807204 -7.683629 3.088291 74.908317 4.906687 13.999339 -1.567681 -0.144029 1.200893 -3.307122 15.281117 1.621684 -16.216180 -6.263800 -24.863080 7.037597 -0.000001 0.000001 0.000003 2.323471 -2.983391 3.054379 -2.164671 -2.443979 20.246001 -0.000001 0.000000 0.000002 -1.984833 -5.673513 7.675528 0.258502 -5.081616 28.022084 0.000003 -0.000001 0.000001 -4.978049 -10.106253 5.739160 4.016147 -4.044546 35.221114 -0.000002 -0.000001 -0.000002 -6.474243 -11.325150 16.652146 10.709911 -2.552712 35.200531 0.000002 -0.000001 -0.000003 0.000001 0.000002 -0.000000 0.000000 0.000004 -0.000000 0.000000 0.000000 0.000000 0.000000 0.000004 -0.000000 0.000000 0.000004 -0.000000 0.000000 0.000004 -0.000000 0.000000 0.000000 -0.000000 0.000000 0.000004 -0.000000 0.000000 0.000004 -0.000000 0.000000 0.000004 -0.000000 0.000000 0.000000 -0.000000 -0.000000 -0.000001 0.000000 -0.000000 -0.000001 0.000000 -0.000000 -0.000001 0.000000 
